<svg xmlns="http://www.w3.org/2000/svg" width="1000" height="420" viewBox="0 0 1000 420">
  <rect width="1000" height="420" fill="#f0f7ff"/>
  <rect x="0" y="0" width="1000" height="420" fill="none" stroke="#dbeafe" stroke-width="2"/>
  <g transform="translate(420,210)">
    <path d="M -90 -50 L 0 -90 L 90 -50 L 90 50 L 0 90 L -90 50 Z" fill="#bfdbfe" opacity="0.6"/>
    <path d="M 0 -90 L 0 0 L 90 -50" fill="none" stroke="#3b82f6" stroke-width="2" opacity="0.5"/>
    <path d="M 0 0 L -90 50" stroke="#3b82f6" stroke-width="2" opacity="0.5" fill="none"/>
    <path d="M 0 0 L 0 90" stroke="#3b82f6" stroke-width="2" opacity="0.5" fill="none"/>
  </g>
  <g transform="translate(700,210)">
    <path d="M -40 -55 Q 10 -55 10 -15 Q 10 5 -10 5 Q -30 5 -30 25 Q -30 55 10 55 L 40 55 L 40 -15 Q 40 -55 -40 -55 Z" fill="#1e40af" opacity="0.85"/>
  </g>
  <path d="M 540 200 L 630 200" stroke="#3b82f6" stroke-width="2.5" stroke-dasharray="4 7" stroke-linecap="round" opacity="0.6"/>
</svg>
