<svg xmlns="http://www.w3.org/2000/svg" width="1000" height="420" viewBox="0 0 1000 420">
  <rect width="1000" height="420" fill="#f0f7ff"/>
  <rect x="0" y="0" width="1000" height="420" fill="none" stroke="#dbeafe" stroke-width="2"/>
  <!-- 小さなブロックが積み重なって大きな信頼の塔になるイメージ -->
  <g opacity="0.85">
    <rect x="430" y="300" width="60" height="34" rx="4" fill="#bfdbfe"/>
    <rect x="495" y="300" width="60" height="34" rx="4" fill="#bfdbfe"/>
    <rect x="450" y="260" width="60" height="34" rx="4" fill="#93c5fd"/>
    <rect x="465" y="220" width="70" height="34" rx="4" fill="#3b82f6"/>
    <rect x="455" y="180" width="90" height="34" rx="4" fill="#1e40af"/>
    <rect x="440" y="140" width="120" height="34" rx="4" fill="#1e3a8a"/>
  </g>
  <g transform="translate(500,100)" fill="#1e3a8a">
    <path d="M 0 -28 L 24 -10 L 14 22 L -14 22 L -24 -10 Z" opacity="0.9"/>
  </g>
  <g stroke="#93c5fd" stroke-width="2" fill="none" opacity="0.5">
    <path d="M 250 320 Q 350 290 430 310"/>
    <path d="M 750 320 Q 650 290 565 300"/>
  </g>
</svg>
